<?xml version="1.0" encoding="UTF-8" standalone="no"?>
<!-- Created with Inkscape (http://www.inkscape.org/) -->

<svg
   width="25"
   height="25"
   viewBox="0 0 6.6145832 6.6145833"
   version="1.1"
   id="svg1"
   inkscape:version="1.4.2 (2aeb623e1d, 2025-05-12)"
   sodipodi:docname="download_from_link.svg"
   xmlns:inkscape="http://www.inkscape.org/namespaces/inkscape"
   xmlns:sodipodi="http://sodipodi.sourceforge.net/DTD/sodipodi-0.dtd"
   xmlns="http://www.w3.org/2000/svg"
   xmlns:svg="http://www.w3.org/2000/svg">
  <sodipodi:namedview
     id="namedview1"
     pagecolor="#505050"
     bordercolor="#eeeeee"
     borderopacity="1"
     inkscape:showpageshadow="0"
     inkscape:pageopacity="0"
     inkscape:pagecheckerboard="0"
     inkscape:deskcolor="#505050"
     inkscape:document-units="px"
     inkscape:zoom="10.547699"
     inkscape:cx="15.406204"
     inkscape:cy="11.756119"
     inkscape:window-width="1920"
     inkscape:window-height="948"
     inkscape:window-x="0"
     inkscape:window-y="32"
     inkscape:window-maximized="1"
     inkscape:current-layer="layer1" />
  <defs
     id="defs1">
    <inkscape:path-effect
       effect="fillet_chamfer"
       id="path-effect10"
       is_visible="true"
       lpeversion="1"
       nodesatellites_param="F,0,1,1,0,0.27943109,0,1 @ F,0,0,1,0,0.27943109,0,1 @ F,0,1,1,0,0.27943109,0,1 @ F,0,1,1,0,0.27943109,0,1 @ F,0,1,1,0,0.27943109,0,1 @ F,0,1,1,0,0.27943109,0,1 @ F,0,1,1,0,0.27943109,0,1"
       radius="0"
       unit="px"
       method="auto"
       mode="F"
       chamfer_steps="1"
       flexible="false"
       use_knot_distance="true"
       apply_no_radius="true"
       apply_with_radius="true"
       only_selected="false"
       hide_knots="false" />
  </defs>
  <g
     inkscape:label="Layer 1"
     inkscape:groupmode="layer"
     id="layer1">
    <path
       id="rect9"
       style="baseline-shift:baseline;display:inline;overflow:visible;opacity:1;vector-effect:none;fill:#bc8aff;fill-opacity:1;stroke-width:1;stroke-linecap:round;stroke-linejoin:round;paint-order:stroke fill markers;enable-background:accumulate;stop-color:#000000;stop-opacity:1"
       d="M 2.4690999 0.00051676432 C 2.4368151 -0.00053191549 2.4044744 1.0811595e-05 2.372465 0.0015502929 C 1.8176412 0.028232293 1.3141489 0.44372629 1.1467 1.0330119 L 0.79995116 2.2520589 C 0.72840876 2.50383 0.72560703 2.7620721 0.78134765 2.9998169 C 0.60933062 3.1712754 0.47616886 3.3903841 0.40462646 3.6421549 L 0.057360839 4.8648193 C -0.14873054 5.590094 0.21458449 6.3652416 0.9079549 6.5670409 C 1.6013253 6.7688399 2.316752 6.3073631 2.5228434 5.5820881 L 2.8706258 4.3604573 C 2.9421673 4.1086867 2.9444572 3.8504439 2.8887125 3.6126993 C 3.0607343 3.4412408 3.1938911 3.2216154 3.2654337 2.9698445 L 3.6121826 1.7502807 C 3.8182731 1.0250062 3.4544426 0.24934159 2.7610717 0.047542317 C 2.6635662 0.019164537 2.5659575 0.0036632343 2.4690999 0.00051676432 z M 2.444812 0.60151366 C 2.495773 0.60324466 2.5471582 0.61121919 2.5972575 0.62580159 C 2.9535068 0.72948498 3.167152 1.1404849 3.041158 1.5838826 L 2.6949259 2.8034464 C 2.6712134 2.8868979 2.6375786 2.9631001 2.5967407 3.0308227 C 2.4474404 2.8577432 2.251972 2.7253738 2.0195149 2.6577189 C 1.7870573 2.5900642 1.5516286 2.5975489 1.3342855 2.6639201 C 1.3352368 2.5845898 1.3472689 2.5013922 1.3709757 2.4179402 L 1.7177246 1.1983764 C 1.8200962 0.83811601 2.1006866 0.61684738 2.3936523 0.60203043 C 2.4105503 0.60117544 2.4278232 0.60093569 2.444812 0.60151366 z M 4.8043578 2.0262329 C 4.7153284 2.0323805 4.6348098 2.1043889 4.6348592 2.2071004 L 4.6348592 2.7719238 C 4.6348952 2.8239608 4.592733 2.8661223 4.540808 2.8659749 L 3.9150065 2.8659749 C 3.7152851 2.8658712 3.5533124 3.0280751 3.5532714 3.2282267 L 3.5532714 3.7914998 C 3.5533123 3.9916514 3.7152851 4.1538553 3.9150065 4.1537516 L 4.556311 4.1537516 C 4.608034 4.1538906 4.6498801 4.1959687 4.6498453 4.2478027 L 4.6498453 4.8152099 C 4.6496643 4.9615059 4.8184911 5.0429887 4.9325154 4.9516357 L 6.5091633 3.690214 C 6.6523182 3.5758649 6.6489897 3.3567828 6.5024454 3.2468302 L 4.9242472 2.0618896 C 4.8869596 2.0339017 4.8448258 2.0234385 4.8043578 2.0262329 z M 1.7048055 3.2116902 C 1.7550575 3.2134202 1.8051526 3.2215421 1.8546671 3.2359781 C 1.9536941 3.2647991 2.0418159 3.3174859 2.1145996 3.3879069 C 2.0159686 3.4084379 1.9139043 3.405367 1.8148763 3.376538 C 1.7158473 3.34772 1.6277275 3.2950334 1.5549438 3.2246093 C 1.6042588 3.2143113 1.6545561 3.2099912 1.7048055 3.2116902 z M 1.0738362 3.5816935 C 1.2231387 3.7547729 1.4186045 3.886626 1.651062 3.9542805 C 1.8835196 4.0219325 2.1179147 4.0149921 2.3352579 3.9485961 C 2.3343064 4.0279261 2.3228054 4.1111243 2.2990844 4.194576 L 1.9518188 5.4162068 C 1.8258238 5.8596131 1.4295688 6.0924649 1.0733195 5.9887817 C 0.71707016 5.8850987 0.50290795 5.4746149 0.62890217 5.0312174 L 0.97616779 3.8090698 C 0.99988025 3.7256182 1.0329996 3.6494161 1.0738362 3.5816935 z " />
  </g>
</svg>
