<?xml version="1.0" encoding="UTF-8" standalone="no"?>
<!-- Created with Inkscape (http://www.inkscape.org/) -->

<svg
   width="25"
   height="25"
   viewBox="0 0 6.6145832 6.6145833"
   version="1.1"
   id="svg1"
   inkscape:version="1.4.2 (2aeb623e1d, 2025-05-12)"
   sodipodi:docname="download_from_search.svg"
   xmlns:inkscape="http://www.inkscape.org/namespaces/inkscape"
   xmlns:sodipodi="http://sodipodi.sourceforge.net/DTD/sodipodi-0.dtd"
   xmlns="http://www.w3.org/2000/svg"
   xmlns:svg="http://www.w3.org/2000/svg">
  <sodipodi:namedview
     id="namedview1"
     pagecolor="#505050"
     bordercolor="#eeeeee"
     borderopacity="1"
     inkscape:showpageshadow="0"
     inkscape:pageopacity="0"
     inkscape:pagecheckerboard="0"
     inkscape:deskcolor="#505050"
     inkscape:document-units="px"
     inkscape:zoom="14.916699"
     inkscape:cx="13.776506"
     inkscape:cy="8.3128311"
     inkscape:window-width="1920"
     inkscape:window-height="948"
     inkscape:window-x="0"
     inkscape:window-y="32"
     inkscape:window-maximized="1"
     inkscape:current-layer="layer1" />
  <defs
     id="defs1">
    <inkscape:path-effect
       effect="fillet_chamfer"
       id="path-effect10"
       is_visible="true"
       lpeversion="1"
       nodesatellites_param="F,0,1,1,0,0.27943109,0,1 @ F,0,0,1,0,0.27943109,0,1 @ F,0,1,1,0,0.27943109,0,1 @ F,0,1,1,0,0.27943109,0,1 @ F,0,1,1,0,0.27943109,0,1 @ F,0,1,1,0,0.27943109,0,1 @ F,0,1,1,0,0.27943109,0,1"
       radius="0"
       unit="px"
       method="auto"
       mode="F"
       chamfer_steps="1"
       flexible="false"
       use_knot_distance="true"
       apply_no_radius="true"
       apply_with_radius="true"
       only_selected="false"
       hide_knots="false" />
  </defs>
  <g
     inkscape:label="Layer 1"
     inkscape:groupmode="layer"
     id="layer1">
    <path
       style="baseline-shift:baseline;display:inline;overflow:visible;opacity:1;vector-effect:none;fill:#8d8aff;fill-opacity:1;stroke-width:0.999999;stroke-linecap:round;stroke-linejoin:round;paint-order:stroke fill markers;enable-background:accumulate;stop-color:#000000;stop-opacity:1"
       d="M 0.39632728,4.40455 A 0.396844,0.396844 0 0 0 0,4.8008772 v 1.347616 A 0.39688368,0.39688368 0 0 0 0.39632728,6.5448207 H 6.2161893 A 0.39688368,0.39688368 0 0 0 6.6145834,6.1484932 V 4.8008772 A 0.396844,0.396844 0 0 0 6.2161893,4.40455 0.396844,0.396844 0 0 0 5.8198621,4.8008772 V 5.752166 H 0.79265457 V 4.8008772 A 0.396844,0.396844 0 0 0 0.39632728,4.40455 Z"
       id="path4" />
    <path
       style="baseline-shift:baseline;display:inline;overflow:visible;opacity:1;vector-effect:none;fill:#8d8aff;fill-opacity:1;stroke-width:0.999999;stroke-linecap:round;stroke-linejoin:round;paint-order:stroke fill markers;enable-background:accumulate;stop-color:#000000;stop-opacity:1"
       d="M 2.2727909,0.27139645 C 2.0475068,0.27144256 1.8649789,0.45377508 1.8650956,0.67857498 V 3.0379366 C 1.8649392,3.0961532 1.8175092,3.1428713 1.759168,3.1428315 H 1.1204965 c -0.164666,-2.036e-4 -0.2562911,0.18996 -0.1534671,0.318302 L 2.3869869,5.2355636 C 2.5156941,5.396694 2.7623831,5.3932729 2.8861423,5.2283436 L 4.2198068,3.4518325 C 4.2513087,3.4098639 4.2632565,3.3625176 4.2601117,3.316968 4.2531904,3.2167596 4.1721306,3.1262409 4.0565222,3.1262965 H 3.4204348 C 3.3618636,3.126337 3.3143418,3.0788133 3.3145072,3.0203689 V 0.67857498 C 3.314623,0.45377508 3.1320952,0.27144268 2.9068113,0.27139645 Z"
       id="path2" />
    <path
       id="path1"
       style="baseline-shift:baseline;display:inline;overflow:visible;vector-effect:none;fill:#8fcdff;stroke-linecap:round;stroke-linejoin:round;paint-order:stroke fill markers;enable-background:accumulate;stop-color:#000000;stop-opacity:1;opacity:1;fill-opacity:1"
       d="M 3.7966674 0.20515543 C 3.0979103 0.20515543 2.5254272 0.78345768 2.5254272 1.4825968 C 2.5254272 2.1817359 3.0979103 2.7595214 3.7966674 2.7595214 C 3.9198448 2.7595214 4.0393036 2.7417922 4.1522013 2.7083618 L 5.2482584 4.2989623 A 0.39687499 0.39687499 0 0 0 5.7986124 4.4002482 A 0.39687499 0.39687499 0 0 0 5.900415 3.8493774 L 4.8048746 2.2572265 C 4.9699571 2.0415195 5.0684244 1.7724807 5.0684244 1.4825968 C 5.0684244 0.78345768 4.4954245 0.20515543 3.7966674 0.20515543 z M 3.7966674 0.99787189 C 4.063486 0.99787189 4.2751912 1.2094882 4.2751912 1.4825968 C 4.2751912 1.6458337 4.1997438 1.7861698 4.0819213 1.8727539 A 0.39687499 0.39687499 0 0 0 4.0664184 1.8825724 A 0.39687499 0.39687499 0 0 0 4.0534993 1.8918742 C 3.9795721 1.9383185 3.8916051 1.964738 3.7966674 1.9647379 C 3.5298488 1.9647379 3.3202107 1.7557054 3.3202107 1.4825968 C 3.3202107 1.2094882 3.5298488 0.99787189 3.7966674 0.99787189 z " />
  </g>
</svg>
