<?xml version="1.0" encoding="UTF-8" standalone="no"?>
<!-- Created with Inkscape (http://www.inkscape.org/) -->

<svg
   width="25"
   height="25"
   viewBox="0 0 6.6145832 6.6145833"
   version="1.1"
   id="svg1"
   inkscape:version="1.4.2 (2aeb623e1d, 2025-05-12)"
   sodipodi:docname="unverified.svg"
   xmlns:inkscape="http://www.inkscape.org/namespaces/inkscape"
   xmlns:sodipodi="http://sodipodi.sourceforge.net/DTD/sodipodi-0.dtd"
   xmlns="http://www.w3.org/2000/svg"
   xmlns:svg="http://www.w3.org/2000/svg">
  <sodipodi:namedview
     id="namedview1"
     pagecolor="#505050"
     bordercolor="#eeeeee"
     borderopacity="1"
     inkscape:showpageshadow="0"
     inkscape:pageopacity="0"
     inkscape:pagecheckerboard="0"
     inkscape:deskcolor="#505050"
     inkscape:document-units="px"
     inkscape:zoom="14.916699"
     inkscape:cx="6.4022207"
     inkscape:cy="16.223428"
     inkscape:window-width="1920"
     inkscape:window-height="948"
     inkscape:window-x="0"
     inkscape:window-y="32"
     inkscape:window-maximized="1"
     inkscape:current-layer="layer1" />
  <defs
     id="defs1" />
  <g
     inkscape:label="Layer 1"
     inkscape:groupmode="layer"
     id="layer1">
    <path
       id="path7"
       style="baseline-shift:baseline;display:inline;overflow:visible;opacity:1;vector-effect:none;fill:#ffa17f;fill-opacity:1;stroke-width:1;stroke-linecap:round;stroke-linejoin:round;paint-order:stroke fill markers;enable-background:accumulate;stop-color:#000000;stop-opacity:1"
       d="M 3.6101142,0.07296606 A 0.56077996,0.56077996 0 0 0 2.8452419,0.28496884 0.56077996,0.56077996 0 0 0 3.0561041,1.0491846 c 0,0 0.5799567,0.3357139 1.041554,0.8062245 0.2308009,0.2352546 0.4190506,0.4994278 0.4987912,0.7220235 0.079741,0.2225958 0.086098,0.3752233 -0.040096,0.5960528 C 4.3616389,3.5142257 4.2000591,3.6437425 4.0821516,3.7030481 3.9642442,3.7623538 3.8572555,3.7727753 3.6866405,3.7554652 3.5160256,3.7381551 3.3033691,3.6801545 3.0355541,3.6512198 2.767739,3.6222851 2.3953522,3.6409705 2.081215,3.8706931 1.6305444,4.20026 1.5949065,4.7392907 1.5949065,4.7392907 A 0.56077996,0.56077996 0 0 0 2.1274393,5.3275142 0.56077996,0.56077996 0 0 0 2.7154435,4.7953608 c 0.00232,-0.00168 0.00895,-0.00656 0.026278,-0.019228 0.021346,-0.01561 0.028781,-0.025373 0.1721425,-0.00988 0.1433616,0.015488 0.3734282,0.075087 0.6607049,0.1042336 0.2872769,0.029142 0.6534367,0.014501 1.0111568,-0.165427 C 4.9434457,4.5251319 5.2600121,4.2017768 5.5296812,3.7298714 5.817891,3.2255223 5.8154999,2.6538624 5.6524093,2.1985944 5.4893186,1.7433263 5.1991201,1.3754814 4.8989426,1.0695076 4.2985876,0.45755997 3.6101142,0.07296606 3.6101142,0.07296606 Z M 1.692562,5.5681568 A 0.56078012,0.56078012 0 0 0 0.92652431,5.773416 0.56078012,0.56078012 0 0 0 1.1317835,6.5394538 0.56078012,0.56078012 0 0 0 1.8978213,6.3341945 0.56078012,0.56078012 0 0 0 1.692562,5.5681568 Z" />
  </g>
</svg>
